<svg version="1" xmlns="http://www.w3.org/2000/svg" width="1434.667" height="1434.667" viewBox="0 0 1076.000000 1076.000000"><path d="M.1 128.2c.1 76.7.5 122.9 1 115 3-50 21.2-99 51.8-139.5C98.4 43.4 168.5 5.6 243.2 1.1c7.9-.5-38.3-.9-114.9-1L0 0l.1 128.2zM690 117.6v117.7l-4.2-5.3c-4.8-5.8-16.7-15.7-25.2-20.8-8.7-5.3-23-11.1-34-13.8-17.1-4.2-29.9-4.6-124.7-4.1-96 .4-94.8.3-118.9 6.3-69.9 17.3-126.4 73.6-144.4 143.9-6.4 25.1-5.9 10.9-6.4 192-.2 118.6 0 167.7.8 174.5 2.9 23.9 9.2 45.6 19.5 66.5 29.8 60.7 85.9 101.6 153 111.6 12.5 1.8 20.1 1.9 191.3 1.9 177.8 0 178.3 0 184.4-2.1 7.5-2.5 15.8-7.8 19.9-12.8 4.2-5 8.7-14.6 9.9-21 .7-3.5 1-149.3 1-428.7V0H690v117.6zm-54.5 192.7c26.7 9.9 43.5 27.5 50.9 53.1l2.6 8.8v195.2c0 189.1-.1 195.2-1.9 198.2-4.2 6.8 4.7 6.4-134.4 6.4-136.2 0-133.4.1-147.7-5.5-22.4-8.8-40.5-27.8-47.5-49.8-1.4-4.3-3-10.8-3.5-14.5-.7-4.5-1-60.4-.8-166.7l.3-160 2.8-8.8c7.8-25.1 23.7-42.9 47-52.5 14.9-6.3 11.2-6.1 124.2-5.9 97.4.2 103.3.3 108 2zM1074.7 833.2c-2.2 48-21 98.6-51.6 139.1-45.5 60.3-115.6 98.1-190.3 102.6-7.9.5 38.3.9 115 1l128.2.1V948c0-70.4-.2-128-.3-128-.2 0-.7 6-1 13.2z"/></svg>