<svg width="92px" height="125px" viewBox="0 0 92 125" version="1.1" xmlns="http://www.w3.org/2000/svg" xmlns:xlink="http://www.w3.org/1999/xlink">
    <desc>Created by altShiftDev @ altshiftdev.com</desc>
    <defs></defs>
    <g stroke="none" stroke-width="1" fill="none" fill-rule="evenodd">
        <g id="airdrops">
            <path d="M37.7748668,105.947071 C38.0398668,105.82117 38.3038668,105.696132 38.5678668,105.571093 C34.0668668,90.3603479 29.2538668,75.2099666 25.2228668,59.9069518 C23.6988668,54.1249889 20.6778668,50.0064721 14.2748668,47.2150904 C11.7938668,48.9242404 9.11886684,50.7670525 6.11786684,52.8340719 C16.7688668,70.704261 27.2718668,88.325235 37.7748668,105.947071 M76.7338668,47.3315058 C70.3848668,50.1228875 67.4188668,54.1568953 65.9078668,60.0285412 C61.9388668,75.4609064 56.9348668,90.6957966 52.3428668,106.010022 C53.6548668,105.136475 54.4358668,104.081838 55.0978668,102.975461 C63.6828668,88.6123928 72.4348668,74.3208982 80.7528668,59.8440013 C85.5898668,51.4241525 86.8778668,53.9154412 76.7338668,47.3315058 M55.8238668,47.2409605 C47.2908668,52.4451583 47.2908668,52.4451583 47.2908668,60.7529034 C47.2898668,71.0992109 47.2908668,81.4455183 47.2908668,91.7909634 L47.2908668,106.536909 C48.3898668,106.004848 48.8128668,105.414148 49.0038668,104.771707 C53.3908668,90.07319 57.7868668,75.3772598 62.1048668,60.6640828 C64.5488668,52.3330547 64.4868668,52.3192573 55.8238668,47.2409605 M42.7848668,106.674883 C43.1438668,106.642976 43.5028668,106.61107 43.8608668,106.577439 L43.8608668,102.987534 C43.8608668,88.6201539 43.3468668,74.2329399 44.0878668,59.8940168 C44.4338668,53.2100504 40.8248668,50.0202695 34.9918668,47.2469969 C34.0588668,47.8290737 33.3078668,48.4085635 32.4468668,48.8164484 C27.6588668,51.0861168 26.6258668,54.1465473 28.2568668,58.7548709 C31.3068668,67.3747816 33.6198668,76.1878556 36.2428668,84.9190077 C38.4208668,92.1712536 40.6038668,99.4234994 42.7848668,106.674883 M45.3358668,111.819579 C38.9798668,113.445945 36.1528668,110.690782 33.5468668,106.113502 C24.2538668,89.7868945 14.1408668,73.8060836 4.91086684,57.4536059 C-7.89513316,34.7689948 5.38486684,8.27027165 32.6708668,1.73807639 C50.8128668,-2.60551008 66.8328668,1.17755798 79.3738668,13.2511244 C92.0468668,25.4531789 95.1168668,39.9369745 87.3478668,54.8743589 C79.1298668,70.6740792 69.3378668,85.864128 60.2318668,101.318914 C59.4028668,102.725384 58.3258668,104.057693 57.7598668,105.536599 C55.7178668,110.875322 52.0808668,113.755524 45.3358668,111.819579" id="Fill-3" fill="#000000"></path>
            <g id="eos" transform="translate(21.000000, 76.000000)">
                <circle id="Oval" fill="#000000" fill-rule="nonzero" cx="24.5" cy="24.5" r="24.5"></circle>
                <polyline id="Shape" stroke="#FFFFFF" stroke-width="0.64" stroke-linecap="round" stroke-linejoin="round" points="16.7477442 17.6110315 24.494698 42 13 34.779152 16.7477442 17.6110315 24.494698 7 24.494698 14.4426073 13 34.779152 36 34.779152 24.505302 14.4426073 24.505302 7 32.250741 17.6110315 36 34.779152 24.505302 42 32.250741 17.6110315"></polyline>
            </g>
        </g>
    </g>
</svg>