
<svg width="269px" height="269px" viewBox="0 0 269 269" version="1.1" xmlns="http://www.w3.org/2000/svg" xmlns:xlink="http://www.w3.org/1999/xlink">
    <!-- Generator: Sketch 51.2 (57519) - http://www.bohemiancoding.com/sketch -->
    <desc>Created with Sketch.</desc>
    <defs></defs>
    <g id="Page-1" stroke="none" stroke-width="1" fill="none" fill-rule="evenodd">
        <g id="altShiftDev-Logo-Final" transform="translate(134.500000, 134.500000) scale(-1, 1) translate(-134.500000, -134.500000) " fill="#FFFFFF">
            <path d="M172.573771,0 L172.573771,59.0873824 C168.394788,53.1696164 159.688575,47.9480581 148.544621,47.9480581 L108.14779,47.9480581 C79.9396583,47.9480581 58,70.5748106 58,98.7712252 L58,171.176833 C58,199.373248 80.6361554,222 108.844287,222 L191.727441,222 C197.995915,222 202.871394,217.126546 202.871394,210.860676 L202.871394,0 L269,0 L269,204 C269,239.898509 239.898509,269 204,269 L0,269 L0,65 C-4.39629938e-15,29.1014913 29.1014913,6.59444907e-15 65,0 L172.573771,0 Z M88.1606253,97.3901199 C88.1606253,85.9026917 97.2150874,76.8519907 108.707289,76.8519907 L155.720843,76.8519907 C164.427056,77.8963024 171.740276,85.2064839 172.436773,94.6052888 L172.436773,189.637649 C172.436773,191.726272 170.69553,193.118688 168.606039,193.118688 L108.707289,193.118688 C97.2150874,193.118688 88.1606253,184.067987 88.1606253,172.580559 L88.1606253,97.3901199 Z" id="symbol" transform="translate(134.500000, 134.500000) scale(-1, 1) translate(-134.500000, -134.500000) "></path>
        </g>
    </g>
</svg>