
<svg width="512px" height="512px" viewBox="0 0 512 512" version="1.1" xmlns="http://www.w3.org/2000/svg" xmlns:xlink="http://www.w3.org/1999/xlink">
    <desc>Created with Sketch.</desc>
    <defs></defs>
    <g stroke="none" stroke-width="1" fill="none" fill-rule="evenodd">
        <path d="M371.344,89.156 L140.66,89.156 C111.699,89.156 88.218,112.637 88.218,141.594 L88.218,370.403 C88.218,399.368 111.699,422.841 140.66,422.841 L371.344,422.841 C400.305,422.841 423.782,399.368 423.782,370.403 L423.782,141.594 C423.782,112.637 400.305,89.156 371.344,89.156 Z M122.106,202.844 C122.075,202.851 122.04,202.855 122.008,202.863 C117.89,203.765 113.317,200.82 113.317,195.886 L113.317,146.93 C113.317,130.344 126.883,116.778 143.469,116.778 L182.68,116.778 C188.785,116.778 192.066,123.953 188.074,128.571 L125.84,200.555 C124.774,201.789 123.465,202.523 122.106,202.844 Z M120.66,67.988 L120.661,67.988 L120.661,67.979 L120.661,65.233 L120.661,46.069 L120.661,43.155 L123.575,43.155 L132.586,43.155 C134.813,43.155 136.621,41.347 136.621,39.116 L136.621,2.91 L136.621,0 L139.535,0 L154.449,0 L157.363,0 L157.363,2.91 L157.363,39.117 C157.363,41.348 159.172,43.156 161.402,43.156 L170.433,43.156 L173.343,43.156 L173.343,46.07 L173.343,65.235 L173.343,68.149 L170.433,68.149 L123.574,68.149 L120.66,68.149 L120.66,67.988 Z M243.098,68.149 L243.098,68.147 L196.238,68.147 L193.324,68.147 L193.324,65.233 L193.324,46.069 L193.324,43.155 L196.238,43.155 L205.281,43.155 C207.511,43.155 209.316,41.347 209.316,39.116 L209.316,2.91 L209.316,0 L212.23,0 L227.149,0 L230.063,0 L230.063,2.91 L230.063,39.117 C230.063,41.348 231.868,43.156 234.098,43.156 L243.098,43.156 L246.012,43.156 L246.012,46.07 L246.012,65.235 L246.012,68.149 L243.098,68.149 Z M265.992,67.988 L265.993,67.988 L265.993,67.979 L265.993,65.233 L265.993,46.069 L265.993,43.155 L268.903,43.155 L277.918,43.155 C280.149,43.155 281.957,41.347 281.957,39.116 L281.957,2.91 L281.957,0 L284.871,0 L299.785,0 L302.699,0 L302.699,2.91 L302.699,39.117 C302.699,41.348 304.508,43.156 306.734,43.156 L315.761,43.156 L318.675,43.156 L318.675,46.07 L318.675,65.235 L318.675,68.149 L315.761,68.149 L268.902,68.149 L265.992,68.149 L265.992,67.988 Z M388.426,68.149 L388.426,68.147 L341.573,68.147 L338.659,68.147 L338.659,65.233 L338.659,46.069 L338.659,43.155 L341.573,43.155 L350.619,43.155 C352.846,43.155 354.654,41.347 354.654,39.116 L354.654,2.91 L354.654,0 L357.568,0 L372.427,0 L375.337,0 L375.337,2.91 L375.337,39.117 C375.337,41.348 377.146,43.156 379.376,43.156 L388.426,43.156 L391.34,43.156 L391.34,46.07 L391.34,65.235 L391.34,68.149 L388.426,68.149 Z M341.57,443.848 L341.57,443.849 L388.424,443.849 L391.338,443.849 L391.338,446.763 L391.338,465.931 L391.338,468.845 L391.178,468.845 L391.162,468.845 L388.424,468.845 L379.416,468.845 C377.186,468.845 375.378,470.65 375.378,472.88 L375.378,509.086 L375.378,512 L372.468,512 L357.55,512 L354.636,512 L354.636,509.085 L354.636,472.879 C354.636,470.649 352.827,468.844 350.601,468.844 L341.57,468.844 L338.656,468.844 L338.656,465.93 L338.656,446.762 L338.656,443.848 L341.57,443.848 Z M268.902,443.848 L268.902,443.849 L315.761,443.849 L318.675,443.849 L318.675,446.763 L318.675,465.931 L318.675,468.845 L318.515,468.845 L318.499,468.845 L315.761,468.845 L306.718,468.845 C304.492,468.845 302.683,470.65 302.683,472.88 L302.683,509.086 L302.683,512 L299.769,512 L284.851,512 L281.941,512 L281.941,509.085 L281.941,472.879 C281.941,470.649 280.132,468.844 277.902,468.844 L268.902,468.844 L265.992,468.844 L265.992,468.683 L265.992,468.676 L265.992,465.93 L265.992,446.762 L265.992,443.848 L268.902,443.848 Z M196.238,443.848 L196.238,443.849 L243.096,443.849 L246.01,443.849 L246.01,446.763 L246.01,465.931 L246.01,468.845 L245.849,468.845 L245.834,468.845 L243.096,468.845 L234.081,468.845 C231.85,468.845 230.046,470.65 230.046,472.88 L230.046,509.086 L230.046,512 L227.132,512 L212.214,512 L209.3,512 L209.3,509.085 L209.3,472.879 C209.3,470.649 207.495,468.844 205.265,468.844 L196.238,468.844 L193.324,468.844 L193.324,465.93 L193.324,446.762 L193.324,443.848 L196.238,443.848 Z M123.574,443.848 L123.574,443.849 L170.431,443.849 L173.341,443.849 L173.341,446.763 L173.341,465.931 L173.341,468.845 L173.184,468.845 L173.165,468.845 L170.431,468.845 L161.381,468.845 C159.154,468.845 157.346,470.65 157.346,472.88 L157.346,509.086 L157.346,512 L154.432,512 L139.577,512 L136.663,512 L136.663,511.839 L136.663,511.831 L136.663,509.085 L136.663,472.879 C136.663,470.649 134.854,468.844 132.624,468.844 L123.574,468.844 L120.66,468.844 L120.66,468.683 L120.66,468.676 L120.66,465.93 L120.66,446.762 L120.66,443.848 L123.574,443.848 Z M509.086,136.617 L509.086,136.618 L512,136.618 L512,139.532 L512,154.45 L512,157.364 L511.84,157.364 L511.832,157.364 L509.086,157.364 L472.884,157.364 C470.653,157.364 468.845,159.169 468.845,161.399 L468.845,170.434 L468.845,173.348 L465.935,173.348 L446.763,173.348 L443.853,173.348 L443.853,170.434 L443.853,123.575 L443.853,120.661 L446.763,120.661 L465.935,120.661 L468.845,120.661 L468.845,123.575 L468.845,132.583 C468.845,134.813 470.653,136.617 472.884,136.617 L509.086,136.617 Z M472.883,209.317 L472.883,209.316 L509.086,209.316 L512,209.316 L512,212.23 L512,227.145 L512,230.059 L509.085,230.059 L472.883,230.059 C470.652,230.059 468.844,231.868 468.844,234.098 L468.844,243.094 L468.844,246.008 L465.934,246.008 L446.762,246.008 L443.852,246.008 L443.852,243.094 L443.852,196.239 L443.852,193.325 L444.009,193.325 L444.02,193.325 L446.762,193.325 L465.934,193.325 L468.844,193.325 L468.844,196.239 L468.844,205.278 C468.844,207.508 470.652,209.317 472.883,209.317 Z M472.883,281.957 L472.883,281.958 L509.086,281.958 L512,281.958 L512,284.872 L512,299.786 L512,302.696 L511.839,302.696 L511.839,302.7 L511.831,302.696 L509.085,302.696 L472.883,302.696 C470.652,302.696 468.844,304.505 468.844,306.735 L468.844,315.762 L468.844,318.676 L465.934,318.676 L446.762,318.676 L443.852,318.676 L443.852,315.762 L443.852,268.903 L443.852,265.989 L446.762,265.989 L465.934,265.989 L468.844,265.989 L468.844,268.903 L468.844,277.918 C468.844,280.149 470.652,281.957 472.883,281.957 Z M472.883,354.652 L472.883,354.654 L509.086,354.654 L512,354.654 L512,357.568 L512,372.423 L512,375.337 L509.085,375.337 L472.883,375.337 C470.652,375.337 468.844,377.146 468.844,379.376 L468.844,388.426 L468.844,391.336 L465.934,391.336 L446.762,391.336 L443.852,391.336 L443.852,388.426 L443.852,341.571 L443.852,338.657 L446.762,338.657 L465.934,338.657 L468.844,338.657 L468.844,341.571 L468.844,350.617 C468.844,352.848 470.652,354.652 472.883,354.652 Z M46.07,338.656 L65.237,338.656 L68.151,338.656 L68.151,341.57 L68.151,388.424 L68.151,391.334 L65.237,391.334 L46.069,391.334 L43.155,391.334 L43.155,388.424 L43.155,379.416 C43.155,377.186 41.347,375.378 39.116,375.378 L2.914,375.378 L0,375.378 L0,372.464 L0,357.55 L0,354.636 L2.914,354.636 L39.117,354.636 C41.348,354.636 43.156,352.827 43.156,350.597 L43.156,341.57 L43.156,338.656 L46.07,338.656 Z M46.07,265.988 L65.237,265.988 L68.151,265.988 L68.151,268.902 L68.151,315.761 L68.151,318.675 L65.237,318.675 L46.069,318.675 L43.155,318.675 L43.155,315.761 L43.155,306.718 C43.155,304.488 41.347,302.683 39.116,302.683 L2.914,302.683 L0,302.683 L0,299.769 L0,284.851 L0,281.937 L2.914,281.937 L39.117,281.937 C41.348,281.937 43.156,280.132 43.156,277.902 L43.156,268.902 L43.156,265.988 L46.07,265.988 Z M46.07,193.324 L46.07,193.323 L65.237,193.323 L68.151,193.323 L68.151,196.237 L68.151,243.092 L68.151,246.006 L65.237,246.006 L46.069,246.006 L43.155,246.006 L43.155,243.092 L43.155,234.077 C43.155,231.847 41.347,230.042 39.116,230.042 L2.914,230.042 L0,230.042 L0,227.128 L0,212.214 L0,209.3 L2.914,209.3 L39.117,209.3 C41.348,209.3 43.156,207.495 43.156,205.265 L43.156,196.238 L43.156,193.324 L43.317,193.324 L43.324,193.324 L46.07,193.324 Z M46.07,120.66 L46.07,120.658 L65.237,120.658 L68.151,120.658 L68.151,123.572 L68.151,170.431 L68.151,173.345 L65.237,173.345 L46.069,173.345 L43.155,173.345 L43.155,170.431 L43.155,161.384 C43.155,159.15 41.347,157.346 39.116,157.346 L2.914,157.346 L0,157.346 L0,154.432 L0,139.573 L0,136.659 L2.914,136.659 L39.117,136.659 C41.348,136.659 43.156,134.854 43.156,132.624 L43.156,123.574 L43.156,120.66 L46.07,120.66 Z" id="CPU" fill="#FFF" fill-rule="nonzero"></path>
    </g>
</svg>