<?xml version="1.0" encoding="UTF-8"?>
<svg width="400px" height="400px" viewBox="0 0 400 400" version="1.1" xmlns="http://www.w3.org/2000/svg" xmlns:xlink="http://www.w3.org/1999/xlink">
    <!-- Generator: Sketch 51.3 (57544) - http://www.bohemiancoding.com/sketch -->
    <title>ledger_simple</title>
    <desc>Created with Sketch.</desc>
    <defs></defs>
    <g id="Page-1" stroke="none" stroke-width="1" fill="none" fill-rule="evenodd">
        <g id="ledger_simple" fill="#FFF" fill-rule="nonzero">
            <path d="M333.9,0.8 L150.9,0.8 L150.9,246.4 L396.500265,246.4 L396.5,64.7 C396.6,30.2 368.4,0.8 333.9,0.8 Z M94.7,0.8 L64,0.8 C29.5,0.8 0,28.9 0,64.8 L0,95.5 L94.7,95.5 L94.7,0.8 Z M0,153 L94.7,153 L94.7,247.7 L0,247.7 L0,153 Z M301.9,398.6 L332.6,398.6 C367.1,398.6 396.6,370.5 396.6,334.6 L396.6,304 L301.9,304 L301.9,398.6 Z M150.9,304 L245.6,304 L245.6,398.7 L150.9,398.7 L150.9,304 Z M0,304 L0,334.7 C0,369.2 28.1,398.7 64,398.7 L94.7,398.7 L94.7,304 L0,304 Z" id="Shape"></path>
        </g>
    </g>
</svg>