
<svg width="512px" height="512px" viewBox="0 0 512 512" version="1.1" xmlns="http://www.w3.org/2000/svg" xmlns:xlink="http://www.w3.org/1999/xlink">
    <!-- Generator: Sketch 51.1 (57501) - http://www.bohemiancoding.com/sketch -->
    <desc>Created with Sketch.</desc>
    <defs></defs>
    <g stroke="none" stroke-width="1" fill="none" fill-rule="evenodd">
        <g id="cloud-network-free-icon" fill="#FFF" fill-rule="nonzero">
            <path d="M132.489012,341 L383.441066,341 C410.71526,341 436.721142,331.228461 456.663197,313.487343 C477.130622,295.268701 488.950475,270.682435 489.930032,244.250188 C490.963731,216.745187 480.514455,190.701467 460.517257,170.915321 C449.324039,159.843272 435.65536,151.364588 420.725389,146.198908 C419.825039,130.891344 416.523421,116.159872 411.208547,102.324115 C394.57914,58.4206143 357.732961,24.080991 311.734893,8.82988808 C295.0343,3.21443525 277.210776,0 258.654338,0 C219.762821,0 182.133598,13.3381359 152.705783,37.5569294 C134.333827,52.6845842 119.588337,71.7836312 109.875985,92.9937362 C82.0533606,97.2062828 56.9367994,109.665928 37.0208131,129.197521 C12.2060397,153.536892 -0.921226151,185.662105 0.0503098289,219.660093 C0.993772529,252.608294 15.4725662,283.353568 40.8397817,306.22783 C65.7006756,328.653277 98.2546505,341 132.489012,341 Z M150.994316,145.835262 L151.006347,145.83909 L151.154734,145.8611 L152.329802,138.762356 C160.616432,88.5783137 205.339171,52.1544273 258.654338,52.1544273 C318.035339,52.1544273 366.349453,98.2637258 366.349453,154.937884 C366.349453,156.256578 366.318371,157.577186 366.244178,159.49111 L366.082756,161.861504 C366.004552,163.03474 365.872207,164.208932 365.745877,165.285514 L365.299712,168.594689 C363.921114,178.990167 362.362044,185.857326 361.426603,189.957908 C360.466095,194.223087 360.063043,195.987725 360.787935,198.256682 C362.045217,202.159173 365.42504,204.685552 369.967898,204.685552 C369.98795,204.685552 370.002989,204.685552 370.019031,204.685552 C371.652295,204.581244 373.222393,204.057785 374.675185,203.082641 L374.675185,203.08934 C375.27475,202.704641 378.403918,200.581143 380.851306,196.741811 C381.161115,196.289168 381.458892,195.796333 381.763688,195.28053 L382.206845,194.551325 C383.158328,193.145548 384.113823,192.4173 384.834704,192.386677 C398.667813,192.386677 411.576508,197.620302 421.195616,207.129633 C430.806704,216.632266 435.8238,229.154113 435.334523,242.386983 C434.366997,268.004855 411.092244,288.844616 383.441066,288.844616 L132.489012,288.844616 C90.6929123,288.844616 55.7807819,257.167261 54.6678769,218.23422 C54.0963851,198.437548 61.7453511,179.73564 76.1860453,165.568775 C90.6377683,151.389469 110.024373,143.58066 130.750474,143.58066 C135.06674,143.58066 139.429127,143.935693 143.737373,144.642888 L150.865981,145.812295 L150.994316,145.835262 Z" id="Shape"></path>
            <polygon id="Shape" points="13.1866287 444 13.1866287 444 13.0265849 444 13.0265849 475 183.374233 475 183.374233 444 13.7067711 444"></polygon>
            <polygon id="Shape" points="305.78477 444 305.78477 444 305.623722 444 305.623722 475 475.97137 475 475.97137 444 306.303924 444"></polygon>
            <polygon id="Shape" points="259.826771 369 229.429577 369 229.335434 369 229.335434 369 229.179197 369 229.179197 424.447293 199.658335 424.447293 199.56319 424.447293 199.56319 424.447293 199.406953 424.447293 199.406953 443.742134 199.406953 474.124147 199.406953 490 289.591002 490 289.591002 474.124147 289.591002 443.742134 289.591002 424.447293 259.826771 424.447293"></polygon>
        </g>
    </g>
</svg>