
<svg width="512px" height="512px" viewBox="0 0 512 512" version="1.1" xmlns="http://www.w3.org/2000/svg" xmlns:xlink="http://www.w3.org/1999/xlink">
    <!-- Generator: Sketch 51.1 (57501) - http://www.bohemiancoding.com/sketch -->
    <desc>Created with Sketch.</desc>
    <defs></defs>
    <g stroke="none" stroke-width="1" fill="none" fill-rule="evenodd">
        <path d="M512,129.194543 L512,338.88599 C512,361.529664 493.643675,379.88599 471,379.88599 L41,379.88599 C18.3563253,379.88599 2.28846736e-14,361.529664 0,338.88599 L0,129.194543 C-2.77305038e-15,106.550868 18.3563253,88.1945428 41,88.1945428 L471,88.1945428 C493.643675,88.1945428 512,106.550868 512,129.194543 Z M44.789,214.066 C46.148,213.745 47.457,213.011 48.523,211.777 L110.757,139.793 C114.749,135.175 111.468,128 105.363,128 L66.152,128 C49.566,128 36,141.566 36,158.152 L36,207.108 C36,212.042 40.573,214.987 44.691,214.085 C44.723,214.077 44.758,214.073 44.789,214.066 Z M408.57,399.848 L408.57,399.849 L455.424,399.849 L458.338,399.849 L458.338,402.763 L458.338,421.931 L458.338,424.845 L458.178,424.845 L458.162,424.845 L455.424,424.845 L446.416,424.845 C444.186,424.845 442.378,426.65 442.378,428.88 L442.378,465.086 L442.378,468 L439.468,468 L424.55,468 L421.636,468 L421.636,465.085 L421.636,428.879 C421.636,426.649 419.827,424.844 417.601,424.844 L408.57,424.844 L405.656,424.844 L405.656,421.93 L405.656,402.762 L405.656,399.848 L408.57,399.848 Z M290.902,399.848 L290.902,399.849 L337.761,399.849 L340.675,399.849 L340.675,402.763 L340.675,421.931 L340.675,424.845 L340.515,424.845 L340.499,424.845 L337.761,424.845 L328.718,424.845 C326.492,424.845 324.683,426.65 324.683,428.88 L324.683,465.086 L324.683,468 L321.769,468 L306.851,468 L303.941,468 L303.941,465.085 L303.941,428.879 C303.941,426.649 302.132,424.844 299.902,424.844 L290.902,424.844 L287.992,424.844 L287.992,424.683 L287.992,424.676 L287.992,421.93 L287.992,402.762 L287.992,399.848 L290.902,399.848 Z M173.238,399.848 L173.238,399.849 L220.096,399.849 L223.01,399.849 L223.01,402.763 L223.01,421.931 L223.01,424.845 L222.849,424.845 L222.834,424.845 L220.096,424.845 L211.081,424.845 C208.85,424.845 207.046,426.65 207.046,428.88 L207.046,465.086 L207.046,468 L204.132,468 L189.214,468 L186.3,468 L186.3,465.085 L186.3,428.879 C186.3,426.649 184.495,424.844 182.265,424.844 L173.238,424.844 L170.324,424.844 L170.324,421.93 L170.324,402.762 L170.324,399.848 L173.238,399.848 Z M55.574,399.848 L55.574,399.849 L102.431,399.849 L105.341,399.849 L105.341,402.763 L105.341,421.931 L105.341,424.845 L105.184,424.845 L105.165,424.845 L102.431,424.845 L93.381,424.845 C91.154,424.845 89.346,426.65 89.346,428.88 L89.346,465.086 L89.346,468 L86.432,468 L71.577,468 L68.663,468 L68.663,467.839 L68.663,467.831 L68.663,465.085 L68.663,428.879 C68.663,426.649 66.854,424.844 64.624,424.844 L55.574,424.844 L52.66,424.844 L52.66,424.683 L52.66,424.676 L52.66,421.93 L52.66,402.762 L52.66,399.848 L55.574,399.848 Z M408.57,68.232 L405.656,68.232 L405.656,65.318 L405.656,46.15 L405.656,43.236 L408.57,43.236 L417.601,43.236 C419.827,43.236 421.636,41.431 421.636,39.201 L421.636,2.995 L421.636,0.08 L424.55,0.08 L439.468,0.08 L442.378,0.08 L442.378,2.994 L442.378,39.2 C442.378,41.43 444.186,43.235 446.416,43.235 L455.424,43.235 L458.162,43.235 L458.178,43.235 L458.338,43.235 L458.338,46.149 L458.338,65.317 L458.338,68.231 L455.424,68.231 L408.57,68.231 L408.57,68.232 Z M290.902,68.232 L287.992,68.232 L287.992,65.318 L287.992,46.15 L287.992,43.404 L287.992,43.397 L287.992,43.236 L290.902,43.236 L299.902,43.236 C302.132,43.236 303.941,41.431 303.941,39.201 L303.941,2.995 L303.941,0.08 L306.851,0.08 L321.769,0.08 L324.683,0.08 L324.683,2.994 L324.683,39.2 C324.683,41.43 326.492,43.235 328.718,43.235 L337.761,43.235 L340.499,43.235 L340.515,43.235 L340.675,43.235 L340.675,46.149 L340.675,65.317 L340.675,68.231 L337.761,68.231 L290.902,68.231 L290.902,68.232 Z M173.238,68.232 L170.324,68.232 L170.324,65.318 L170.324,46.15 L170.324,43.236 L173.238,43.236 L182.265,43.236 C184.495,43.236 186.3,41.431 186.3,39.201 L186.3,2.995 L186.3,0.08 L189.214,0.08 L204.132,0.08 L207.046,0.08 L207.046,2.994 L207.046,39.2 C207.046,41.43 208.85,43.235 211.081,43.235 L220.096,43.235 L222.834,43.235 L222.849,43.235 L223.01,43.235 L223.01,46.149 L223.01,65.317 L223.01,68.231 L220.096,68.231 L173.238,68.231 L173.238,68.232 Z M55.574,68.232 L52.66,68.232 L52.66,65.318 L52.66,46.15 L52.66,43.404 L52.66,43.397 L52.66,43.236 L55.574,43.236 L64.624,43.236 C66.854,43.236 68.663,41.431 68.663,39.201 L68.663,2.995 L68.663,0.249 L68.663,0.241 L68.663,0.08 L71.577,0.08 L86.432,0.08 L89.346,0.08 L89.346,2.994 L89.346,39.2 C89.346,41.43 91.154,43.235 93.381,43.235 L102.431,43.235 L105.165,43.235 L105.184,43.235 L105.341,43.235 L105.341,46.149 L105.341,65.317 L105.341,68.231 L102.431,68.231 L55.574,68.231 L55.574,68.232 Z" id="RAM" fill="#FFF" fill-rule="nonzero"></path>
    </g>
</svg>