<svg xmlns="http://www.w3.org/2000/svg" id="Layer_1" data-name="Layer 1" viewBox="0 0 38 37">
  <defs>
    <style>.cls-1{fill:#00acc2;}</style>
  </defs>
  <title>Telgram</title>
  <g id="Page-1">
    <g id="_03D---TECHNOLOGY" data-name="03D---TECHNOLOGY">
      <g id="Group-2">
        <path class="cls-1" d="M18.79,0A18.5,18.5,0,1,0,37.16,18.5,18.43,18.43,0,0,0,18.79,0ZM28.9,11.09,25.21,28.61c-.26,1.25-1,1.54-2,1L17.55,25.4,14.84,28a1.44,1.44,0,0,1-1.13.57l.38-5.78,10.44-9.48c.46-.41-.1-.61-.71-.24L10.95,21.29,5.38,19.54c-1.2-.37-1.21-1.2.27-1.8L27.34,9.32C28.33,8.87,29.28,9.56,28.9,11.09Z"/>
      </g>
    </g>
  </g>
</svg>
