<svg xmlns="http://www.w3.org/2000/svg" xmlns:xlink="http://www.w3.org/1999/xlink" version="1.1" id="Layer_1" x="0px" y="0px" viewBox="0 0 37 37" style="enable-background:new 0 0 37 37;" xml:space="preserve">
<style type="text/css">
	.st0{fill:#00acc2;}
</style>
  <title>twitter</title>
  <path class="st0" d="M18.5,0C8.3,0,0,8.3,0,18.5C0,28.7,8.3,37,18.5,37S37,28.7,37,18.5C37,8.3,28.7,0,18.5,0z M28.4,14.5  c0,0.2,0,0.4,0,0.6c0,6.7-4.9,14.4-13.8,14.4c-2.8,0-5.3-0.8-7.5-2.3c0.4,0,0.8,0.1,1.2,0.1c2.3,0,4.4-0.8,6-2.2  c-2.1,0-3.9-1.5-4.5-3.5c0.3,0.1,0.6,0.1,0.9,0.1c0.4,0,0.9-0.1,1.3-0.2c-2.2-0.5-3.9-2.5-3.9-5v-0.1c0.7,0.4,1.4,0.6,2.2,0.6  C9,16.3,8.2,14.7,8.2,13c0-0.9,0.2-1.8,0.7-2.5c2.4,3.1,6,5.1,10,5.3c-0.1-0.4-0.1-0.8-0.1-1.2c0-2.8,2.2-5.1,4.9-5.1  c1.4,0,2.7,0.6,3.5,1.6c1.1-0.2,2.1-0.6,3.1-1.2c-0.4,1.2-1.1,2.2-2.1,2.8c1-0.1,1.9-0.4,2.8-0.8l0,0C30.2,12.9,29.4,13.8,28.4,14.5  z"/>
</svg>
